<?xml version="1.0" encoding="utf-8" standalone="no"?>
<!DOCTYPE svg PUBLIC "-//W3C//DTD SVG 1.1//EN" "http://www.w3.org/Graphics/SVG/1.1/DTD/svg11.dtd">
<svg width="400mm" height="300mm" viewBox="0 0 400 300" xmlns="http://www.w3.org/2000/svg" xmlns:xlink="http://www.w3.org/1999/xlink" version="1.1" style="stroke:black; fill:none; stroke-width:0.5pt; stroke-linejoin:round; text-anchor:middle" font-family="Helvetica, Arial, FreeSans, Sans, sans, sans-serif">

<g>

<rect x="100.0" y="80.0" width="20" height="20" fill="black" stroke="none" />

<rect x="100.0" y="120.0" width="20" height="20" fill="black" stroke="none" />

<rect x="100.0" y="160.0" width="20" height="20" fill="black" stroke="none" />

<rect x="100.0" y="200.0" width="20" height="20" fill="black" stroke="none" />

<rect x="120.0" y="100.0" width="20" height="20" fill="black" stroke="none" />

<rect x="120.0" y="140.0" width="20" height="20" fill="black" stroke="none" />

<rect x="120.0" y="180.0" width="20" height="20" fill="black" stroke="none" />

<rect x="140.0" y="80.0" width="20" height="20" fill="black" stroke="none" />

<rect x="140.0" y="120.0" width="20" height="20" fill="black" stroke="none" />

<rect x="140.0" y="160.0" width="20" height="20" fill="black" stroke="none" />

<rect x="140.0" y="200.0" width="20" height="20" fill="black" stroke="none" />

<rect x="160.0" y="100.0" width="20" height="20" fill="black" stroke="none" />

<rect x="160.0" y="140.0" width="20" height="20" fill="black" stroke="none" />

<rect x="160.0" y="180.0" width="20" height="20" fill="black" stroke="none" />

<rect x="180.0" y="80.0" width="20" height="20" fill="black" stroke="none" />

<rect x="180.0" y="120.0" width="20" height="20" fill="black" stroke="none" />

<rect x="180.0" y="160.0" width="20" height="20" fill="black" stroke="none" />

<rect x="180.0" y="200.0" width="20" height="20" fill="black" stroke="none" />

<rect x="200.0" y="100.0" width="20" height="20" fill="black" stroke="none" />

<rect x="200.0" y="140.0" width="20" height="20" fill="black" stroke="none" />

<rect x="200.0" y="180.0" width="20" height="20" fill="black" stroke="none" />

<rect x="220.0" y="80.0" width="20" height="20" fill="black" stroke="none" />

<rect x="220.0" y="120.0" width="20" height="20" fill="black" stroke="none" />

<rect x="220.0" y="160.0" width="20" height="20" fill="black" stroke="none" />

<rect x="220.0" y="200.0" width="20" height="20" fill="black" stroke="none" />

<rect x="240.0" y="100.0" width="20" height="20" fill="black" stroke="none" />

<rect x="240.0" y="140.0" width="20" height="20" fill="black" stroke="none" />

<rect x="240.0" y="180.0" width="20" height="20" fill="black" stroke="none" />

<rect x="260.0" y="80.0" width="20" height="20" fill="black" stroke="none" />

<rect x="260.0" y="120.0" width="20" height="20" fill="black" stroke="none" />

<rect x="260.0" y="160.0" width="20" height="20" fill="black" stroke="none" />

<rect x="260.0" y="200.0" width="20" height="20" fill="black" stroke="none" />

<rect x="280.0" y="100.0" width="20" height="20" fill="black" stroke="none" />

<rect x="280.0" y="140.0" width="20" height="20" fill="black" stroke="none" />

<rect x="280.0" y="180.0" width="20" height="20" fill="black" stroke="none" />

</g>

</svg>

